<?xml version="1.0" encoding="UTF-8"?>
<svg version="1.1" xmlns="http://www.w3.org/2000/svg" width="347" height="347">
<path d="M0 0 C2.02785921 1.0795499 2.02785921 1.0795499 4.25 1.3125 C7.35927888 0.19646637 10.05906696 -1.32619391 12.9375 -2.9453125 C31.26366949 -12.58384032 56.84632166 -10.94682303 76.21435547 -5.32470703 C92.56711888 -0.20588807 106.95200587 8.67983082 115.6875 23.80078125 C117.70849825 27.9761075 119.08236407 31.6304521 118.25 36.3125 C115.6311067 40.91813994 113.34406568 44.61447811 108.25 46.3125 C100.93086314 47.21485934 93.61709477 47.45918994 86.25 47.3125 C84.86737003 44.54724005 85.30299884 42.3951211 85.4375 39.3125 C85.49155463 29.50698983 82.09398655 21.37678654 75.25 14.3125 C63.28886666 4.19313287 50.66262795 1.37685482 35.25 2.3125 C28.39455927 3.50515887 22.89627906 6.32225251 17.25 10.3125 C18.79060475 13.70973098 20.80482342 16.47618808 23.0625 19.4375 C35.77804411 36.76012531 39.32971455 56.76517146 36.5 77.9375 C34.52105342 89.26147209 30.64233401 100.30621916 23.56640625 109.5 C22.05411561 111.20885307 22.05411561 111.20885307 22.25 113.3125 C35.17400158 124.22915666 48.5083332 128.45227865 65.25 127.3125 C69.77242339 126.5409379 72.55067826 124.30992435 75.5 120.875 C80.34600465 113.79437659 82.16502394 105.08239434 80.87890625 96.62109375 C78.88460725 89.30040613 73.6237863 83.2719733 67.25 79.3125 C62.32842889 77.31641215 57.35092736 75.79610306 52.25 74.3125 C50.22945096 73.71098023 48.22077542 73.06115793 46.25 72.3125 C45.92 71.6525 45.59 70.9925 45.25 70.3125 C69.34 70.3125 93.43 70.3125 118.25 70.3125 C118.25 105.3125 118.25 105.3125 110.25 116.3125 C89.48185584 135.37367341 63.75935799 139.43892036 36.41162109 138.51220703 C26.21382441 137.86805277 16.93554737 134.54658062 7.703125 130.265625 C4.09857703 128.86513184 1.77772375 129.10236258 -1.78125 130.51953125 C-4.07361471 131.58052437 -6.36529476 132.64299814 -8.65625 133.70703125 C-18.62807633 137.86440015 -28.34042473 138.81034461 -39.0625 138.6875 C-40.34342529 138.67734863 -41.62435059 138.66719727 -42.9440918 138.65673828 C-63.68696675 138.3162368 -87.54309368 132.51940632 -102.75 117.3125 C-111.90756865 105.59695129 -111.90756865 105.59695129 -111.8828125 96.93359375 C-111.88424759 95.84269188 -111.88424759 95.84269188 -111.88571167 94.72975159 C-111.88639235 93.19231072 -111.88454585 91.65486699 -111.88037109 90.11743164 C-111.87501351 87.755957 -111.88032377 85.39467189 -111.88671875 83.03320312 C-111.8860581 81.54166624 -111.88477721 80.05012948 -111.8828125 78.55859375 C-111.88483673 77.84819443 -111.88686096 77.1377951 -111.88894653 76.40586853 C-111.86495714 71.42745714 -111.86495714 71.42745714 -110.75 70.3125 C-108.51070114 70.21813471 -106.2683825 70.19507673 -104.02709961 70.19897461 C-103.3246965 70.19882858 -102.6222934 70.19868256 -101.89860535 70.1985321 C-99.56648722 70.19923128 -97.234448 70.20702383 -94.90234375 70.21484375 C-93.28951562 70.21670792 -91.67668693 70.21813182 -90.06385803 70.21913147 C-85.81084643 70.22295677 -81.55786876 70.23278715 -77.30487061 70.24383545 C-72.9682257 70.25404931 -68.63157533 70.25862904 -64.29492188 70.26367188 C-55.77993231 70.27440941 -47.26497037 70.29148597 -38.75 70.3125 C-39.245 71.7975 -39.245 71.7975 -39.75 73.3125 C-42.27119181 74.07486038 -44.67907704 74.66335081 -47.25 75.1875 C-57.76071518 77.59937628 -65.48062281 81.13780167 -71.75 90.3125 C-75.31429339 96.95908268 -75.50112174 102.99401578 -73.5625 110.25 C-71.49880314 116.55627367 -68.92395123 121.38009891 -63.9375 125.8125 C-56.13881261 129.61839537 -44.97687089 127.96875111 -36.9375 125.75 C-29.00077003 122.98596469 -22.39202469 118.3592116 -15.75 113.3125 C-17.03508385 109.85312736 -18.55653482 106.90348593 -20.5625 103.8125 C-31.2934311 86.10252814 -33.35918143 65.11959219 -28.85546875 45.1171875 C-25.70937304 34.28928214 -21.2244643 24.82302866 -13.75 16.3125 C-11.97354513 14.35488015 -11.97354513 14.35488015 -10.75 12.3125 C-11.45906875 9.11602037 -11.45906875 9.11602037 -14.296875 7.7421875 C-15.35390625 7.22914062 -16.4109375 6.71609375 -17.5 6.1875 C-19.07007813 5.41019531 -19.07007813 5.41019531 -20.671875 4.6171875 C-29.84263848 0.73008724 -42.01639779 0.93591115 -51.35546875 4.28125 C-63.43004957 9.48139574 -72.80474815 16.08541353 -77.8828125 28.60546875 C-79.87873972 34.83599831 -79.93831223 39.90475481 -78.75 46.3125 C-82.45806596 46.42924705 -86.1656554 46.49993274 -89.875 46.5625 C-90.92171875 46.59601563 -91.9684375 46.62953125 -93.046875 46.6640625 C-99.30906915 46.74333078 -102.99373388 46.52026756 -107.75 42.3125 C-111.05245597 39.01004403 -111.59597268 35.93331949 -111.75 31.3125 C-108.84769738 19.7032895 -100.46380226 10.69919535 -90.55566406 4.38427734 C-64.16844767 -11.27822671 -27.48755069 -15.96848718 0 0 Z M-11.75 46.3125 C-11.42 49.2825 -11.09 52.2525 -10.75 55.3125 C-9.615625 54.384375 -8.48125 53.45625 -7.3125 52.5 C-6.67441406 51.97792969 -6.03632813 51.45585937 -5.37890625 50.91796875 C-3.4951725 49.30415589 -3.4951725 49.30415589 -2.75 46.3125 C-5.72 46.3125 -8.69 46.3125 -11.75 46.3125 Z M10.25 46.3125 C10.25 49.6991371 10.60706033 50.08919287 12.75 52.5 C13.575 53.428125 14.4 54.35625 15.25 55.3125 C17.37508244 52.12487635 17.7520163 50.04737777 18.25 46.3125 C15.61 46.3125 12.97 46.3125 10.25 46.3125 Z M-0.3515625 49.68359375 C-1.36456042 50.70059034 -2.37216283 51.72298274 -3.375 52.75 C-3.890625 53.26626953 -4.40625 53.78253906 -4.9375 54.31445312 C-7.56752592 56.45627852 -7.56752592 56.45627852 -8.75 59.3125 C-1.16 59.3125 6.43 59.3125 14.25 59.3125 C9.64056486 52.86031413 9.64056486 52.86031413 4.25 47.3125 C1.9096997 47.08796291 1.9096997 47.08796291 -0.3515625 49.68359375 Z M-16.75 48.3125 C-17.96958532 49.78653117 -19.15113863 51.29217239 -20.3125 52.8125 C-20.95316406 53.6478125 -21.59382813 54.483125 -22.25390625 55.34375 C-22.74761719 55.9934375 -23.24132812 56.643125 -23.75 57.3125 C-23.09 57.9725 -22.43 58.6325 -21.75 59.3125 C-19.7568433 59.33625926 -19.7568433 59.33625926 -17.625 58.9375 C-16.34625 58.73125 -15.0675 58.525 -13.75 58.3125 C-14.41 55.0125 -15.07 51.7125 -15.75 48.3125 C-16.08 48.3125 -16.41 48.3125 -16.75 48.3125 Z M22.25 49.3125 C20.39935681 52.43546038 19.95643846 54.69190768 20.25 58.3125 C21.25836062 59.54517348 21.25836062 59.54517348 23.31640625 59.41015625 C24.14011719 59.39855469 24.96382812 59.38695312 25.8125 59.375 C27.05193359 59.36146484 27.05193359 59.36146484 28.31640625 59.34765625 C28.95449219 59.33605469 29.59257812 59.32445312 30.25 59.3125 C28.41309921 55.38238668 26.12042844 52.55093209 23.25 49.3125 C22.92 49.3125 22.59 49.3125 22.25 49.3125 Z M-23.75 63.3125 C-22.945625 64.240625 -22.14125 65.16875 -21.3125 66.125 C-17.73269134 70.28302003 -14.31543106 74.56715151 -10.8984375 78.859375 C-8.97520531 81.05535648 -7.15454676 82.68045469 -4.75 84.3125 C-5.19692351 77.90659637 -7.1337677 67.9287323 -11.75 63.3125 C-13.76964199 63.24005947 -15.79167124 63.22872812 -17.8125 63.25 C-18.91722656 63.25902344 -20.02195312 63.26804687 -21.16015625 63.27734375 C-22.01480469 63.28894531 -22.86945313 63.30054688 -23.75 63.3125 Z M-6.75 63.3125 C-5.1244642 69.9082975 -5.1244642 69.9082975 -3.0234375 76.25 C-2.7140625 77.08144531 -2.4046875 77.91289062 -2.0859375 78.76953125 C-1.76882812 79.60871094 -1.45171875 80.44789063 -1.125 81.3125 C-0.80015625 82.18261719 -0.4753125 83.05273438 -0.140625 83.94921875 C0.65242066 86.07178213 1.44935082 88.1927957 2.25 90.3125 C4.85698297 88.02691961 5.9273061 86.05139484 7.0390625 82.78515625 C7.34070313 81.91052734 7.64234375 81.03589844 7.953125 80.13476562 C8.40945312 78.76868164 8.40945312 78.76868164 8.875 77.375 C9.18695313 76.46814453 9.49890625 75.56128906 9.8203125 74.62695312 C11.10470386 70.86512584 12.28489532 67.17291871 13.25 63.3125 C6.65 63.3125 0.05 63.3125 -6.75 63.3125 Z M17.25 63.3125 C15.88652734 66.76742636 14.53391475 70.22593286 13.1875 73.6875 C12.79755859 74.67234375 12.40761719 75.6571875 12.00585938 76.671875 C11.64169922 77.61289063 11.27753906 78.55390625 10.90234375 79.5234375 C10.39175415 80.82740479 10.39175415 80.82740479 9.87084961 82.15771484 C8.97967738 84.33632604 8.97967738 84.33632604 10.25 86.3125 C21.36258468 75.59227175 21.36258468 75.59227175 30.25 63.3125 C25.96 63.3125 21.67 63.3125 17.25 63.3125 Z M8.25 86.3125 C9.25 88.3125 9.25 88.3125 9.25 88.3125 Z " fill="#ECBE2B" transform="translate(162.75,109.6875)"/>
<path d="M0 0 C6.27 0 12.54 0 19 0 C19 1.32 19 2.64 19 4 C19.66 4 20.32 4 21 4 C18.80675471 10.69516983 16.46922132 17.33107523 14.0859375 23.9609375 C13.36930816 25.96646854 12.67347697 27.97956908 12 30 C9.75 30.75 9.75 30.75 7 31 C2.30513007 27.37824319 0.84339692 22.72245134 -1.1328125 17.29296875 C-1.75941717 15.63613568 -2.4261264 13.9942821 -3.1171875 12.36328125 C-3.49101562 11.48027344 -3.86484375 10.59726563 -4.25 9.6875 C-4.78367188 8.45580078 -4.78367188 8.45580078 -5.328125 7.19921875 C-6 5 -6 5 -5 2 C-3.1315918 2.18164062 -3.1315918 2.18164062 -1 3 C0.17260742 5.20898438 0.17260742 5.20898438 1.10546875 8.09375 C1.62077148 9.63869141 1.62077148 9.63869141 2.14648438 11.21484375 C2.49001953 12.29894531 2.83355469 13.38304687 3.1875 14.5 C3.88725529 16.6360951 4.58897165 18.77154912 5.29296875 20.90625 C5.5974292 21.85822266 5.90188965 22.81019531 6.21557617 23.79101562 C6.80261585 25.94585558 6.80261585 25.94585558 8 27 C8.2673999 26.28344238 8.5347998 25.56688477 8.81030273 24.82861328 C10.01822933 21.59364882 11.22784311 18.35931782 12.4375 15.125 C12.85837891 13.99707031 13.27925781 12.86914062 13.71289062 11.70703125 C14.11572266 10.63066406 14.51855469 9.55429688 14.93359375 8.4453125 C15.30540771 7.45031738 15.67722168 6.45532227 16.06030273 5.43017578 C17 3 17 3 18 1 C12.06 1 6.12 1 0 1 C0 0.67 0 0.34 0 0 Z " fill="#EABC3E" transform="translate(158,172)"/>
<path d="M0 0 C0.804375 0.6496875 0.804375 0.6496875 1.625 1.3125 C9.58112231 6.96553428 16.63925376 6.79430607 26 6 C27.67367753 5.70387095 29.34504833 5.38732912 31 5 C30.67 5.99 30.34 6.98 30 8 C22.08 8.495 22.08 8.495 14 9 C15.98 9.66 17.96 10.32 20 11 C19.67 12.32 19.34 13.64 19 15 C31.87 15.495 31.87 15.495 45 16 C45 16.33 45 16.66 45 17 C6.63033801 17.75355868 6.63033801 17.75355868 -2 12 C0 9 0 9 2.5625 8.3125 C5 8 5 8 6 8 C5.195625 7.236875 4.39125 6.47375 3.5625 5.6875 C1 3 1 3 0 0 Z " fill="#EBC032" transform="translate(93,231)"/>
<path d="M0 0 C1.27685165 0.00222061 2.55370331 0.00444122 3.86924744 0.00672913 C4.57165054 0.0065831 5.27405365 0.00643707 5.9977417 0.00628662 C8.32985983 0.00698579 10.66189904 0.01477835 12.9940033 0.02259827 C14.60683142 0.02446243 16.21966012 0.02588634 17.83248901 0.02688599 C22.08550062 0.03071129 26.33847828 0.04054167 30.59147644 0.05158997 C34.92812135 0.06180383 39.26477171 0.06638355 43.60142517 0.07142639 C52.11641474 0.08216393 60.63137667 0.09924049 69.14634705 0.12025452 C68.81634705 1.11025452 68.48634705 2.10025452 68.14634705 3.12025452 C67.15634705 2.79025452 66.16634705 2.46025452 65.14634705 2.12025452 C62.98481426 2.0025018 60.81993137 1.94335975 58.65538025 1.91493225 C58.00145294 1.90503265 57.34752563 1.89513306 56.67378235 1.88493347 C54.51493434 1.85337669 52.35606434 1.82858419 50.1971283 1.80384827 C48.69925366 1.7832737 47.20138477 1.76227709 45.70352173 1.74087524 C41.76296135 1.68570643 37.82234902 1.63627431 33.88169861 1.58802795 C29.85984173 1.53777501 25.83806021 1.48210875 21.81626892 1.42689514 C13.92635869 1.31937706 6.03638538 1.21791803 -1.85365295 1.12025452 C-1.78472447 5.88964862 -1.6967344 10.65817028 -1.59120178 15.42689514 C-1.55798461 17.04854137 -1.52994261 18.67030232 -1.50721741 20.29212952 C-1.4736114 22.62595929 -1.42129535 24.95874087 -1.3653717 27.29212952 C-1.35898178 28.01519287 -1.35259186 28.73825623 -1.3460083 29.48323059 C-1.22347885 33.69505176 -0.67139506 35.98057846 2.14634705 39.12025452 C2.14634705 39.78025452 2.14634705 40.44025452 2.14634705 41.12025452 C2.80634705 41.45025452 3.46634705 41.78025452 4.14634705 42.12025452 C3.15634705 42.12025452 2.16634705 42.12025452 1.14634705 42.12025452 C-5.46261397 34.82326384 -4.45920595 26.42359451 -4.22865295 17.18275452 C-4.21212303 15.63785468 -4.19778087 14.0929298 -4.1856842 12.54798889 C-4.03642977 0.17009739 -4.03642977 0.17009739 0 0 Z " fill="#DBB94D" transform="translate(54.85365295410156,179.87974548339844)"/>
<path d="M0 0 C2.00948183 0.01778303 4.01668765 0.16786374 6.01953125 0.33203125 C6.34953125 0.99203125 6.67953125 1.65203125 7.01953125 2.33203125 C8.00953125 2.66203125 8.99953125 2.99203125 10.01953125 3.33203125 C10.01953125 4.65203125 10.01953125 5.97203125 10.01953125 7.33203125 C6.76092216 9.50443731 6.19902322 9.56767283 2.51953125 9.14453125 C1.74609375 9.06847656 0.97265625 8.99242188 0.17578125 8.9140625 C-2.3279305 8.23824175 -3.3321336 7.29207081 -4.98046875 5.33203125 C-3.05235036 0.51173527 -3.05235036 0.51173527 0 0 Z " fill="#EBBE27" transform="translate(136.98046875,102.66796875)"/>
<path d="M0 0 C4.85077588 1.11940982 7.777893 2.1334716 11 6 C11.99 5.01 12.98 4.02 14 3 C13.67 4.98 13.34 6.96 13 9 C13.99 9 14.98 9 16 9 C16.33 9.66 16.66 10.32 17 11 C20.63 11 24.26 11 28 11 C28 11.66 28 12.32 28 13 C19.42857143 14.28571429 19.42857143 14.28571429 16 13 C15.67 13.66 15.34 14.32 15 15 C14.67 14.01 14.34 13.02 14 12 C13.01 12 12.02 12 11 12 C6.22050047 8.87281005 2.89155302 4.85780907 0 0 Z " fill="#EFC436" transform="translate(167,157)"/>
<path d="M0 0 C0.66 0.99 1.32 1.98 2 3 C-1.3 6.3 -4.6 9.6 -8 13 C-8.33 12.34 -8.66 11.68 -9 11 C-9.99 11.66 -10.98 12.32 -12 13 C-13.65549531 13.38499891 -15.3222433 13.72793135 -17 14 C-16.34 13.34 -15.68 12.68 -15 12 C-14.97746557 9.55036823 -14.97746557 9.55036823 -15.375 6.875 C-15.48585937 5.96492187 -15.59671875 5.05484375 -15.7109375 4.1171875 C-15.80632812 3.41851562 -15.90171875 2.71984375 -16 2 C-15.34 3.32 -14.68 4.64 -14 6 C-13.01 6 -12.02 6 -11 6 C-10.67 6.99 -10.34 7.98 -10 9 C-7.69 6.36 -5.38 3.72 -3 1 C-5.64 1.33 -8.28 1.66 -11 2 C-11 1.34 -11 0.68 -11 0 C-7.02990455 -1.05090762 -3.98145507 -1.06172135 0 0 Z " fill="#EAC44A" transform="translate(163,155)"/>
<path d="M0 0 C6.27 0 12.54 0 19 0 C19 1.32 19 2.64 19 4 C19.66 4 20.32 4 21 4 C19.33333333 9 17.66666667 14 16 19 C15.34 18.34 14.68 17.68 14 17 C13.67 17.66 13.34 18.32 13 19 C12.34 18.67 11.68 18.34 11 18 C13.31 12.39 15.62 6.78 18 1 C12.06 1 6.12 1 0 1 C0 0.67 0 0.34 0 0 Z " fill="#ECC846" transform="translate(158,172)"/>
<path d="M0 0 C23.76 0 47.52 0 72 0 C71.67 0.99 71.34 1.98 71 3 C70.01 2.67 69.02 2.34 68 2 C65.80784547 1.88211998 63.61237425 1.82308063 61.41723633 1.79467773 C60.75355545 1.78477814 60.08987457 1.77487854 59.40608215 1.76467896 C57.21476801 1.7331191 55.02343219 1.70832845 52.83203125 1.68359375 C51.31173645 1.66301945 49.79144731 1.64202285 48.27116394 1.62062073 C44.27141913 1.56544916 40.27162311 1.51601825 36.27178955 1.46777344 C32.18961026 1.4175225 28.10750526 1.36185519 24.02539062 1.30664062 C16.0169899 1.19911918 8.00852701 1.09766089 0 1 C0 0.67 0 0.34 0 0 Z " fill="#E7C658" transform="translate(52,180)"/>
<path d="M0 0 C1.17498047 -0.00128906 2.34996094 -0.00257812 3.56054688 -0.00390625 C4.77935547 -0.00003906 5.99816406 0.00382812 7.25390625 0.0078125 C8.46884766 0.00394531 9.68378906 0.00007813 10.93554688 -0.00390625 C12.11181641 -0.00261719 13.28808594 -0.00132813 14.5 0 C15.56790771 0.00112793 16.63581543 0.00225586 17.73608398 0.00341797 C20.83779074 0.13371079 23.76850084 0.55756355 26.81640625 1.1328125 C26.81640625 1.4628125 26.81640625 1.7928125 26.81640625 2.1328125 C24.83786367 2.32678726 22.85854145 2.51282571 20.87890625 2.6953125 C19.22568359 2.85193359 19.22568359 2.85193359 17.5390625 3.01171875 C16.19134766 3.07166016 16.19134766 3.07166016 14.81640625 3.1328125 C14.48640625 2.8028125 14.15640625 2.4728125 13.81640625 2.1328125 C8.21163535 1.91954847 8.21163535 1.91954847 2.81640625 3.1328125 C0.58413725 3.04663524 -1.64597861 2.89359009 -3.87109375 2.6953125 C-5.05058594 2.59347656 -6.23007813 2.49164063 -7.4453125 2.38671875 C-8.34894531 2.30292969 -9.25257813 2.21914062 -10.18359375 2.1328125 C-10.18359375 2.7928125 -10.18359375 3.4528125 -10.18359375 4.1328125 C-11.83359375 3.8028125 -13.48359375 3.4728125 -15.18359375 3.1328125 C-10.23171615 0.38176939 -5.60283134 0.005924 0 0 Z " fill="#E7C549" transform="translate(201.18359375,100.8671875)"/>
<path d="M0 0 C0.66 0.33 1.32 0.66 2 1 C1.98839844 1.77085937 1.97679687 2.54171875 1.96484375 3.3359375 C1.95582031 4.33882812 1.94679687 5.34171875 1.9375 6.375 C1.92589844 7.37273437 1.91429687 8.37046875 1.90234375 9.3984375 C1.81993398 11.98432453 1.81993398 11.98432453 3 14 C2.77342885 16.66947294 2.48414636 19.28588044 2.125 21.9375 C2.03347656 22.66646484 1.94195312 23.39542969 1.84765625 24.14648438 C1.44692316 27.22535618 0.98419278 30.04742165 0 33 C-1.485 33.495 -1.485 33.495 -3 34 C-2.77183594 33.10539062 -2.54367188 32.21078125 -2.30859375 31.2890625 C0.03770075 21.41989551 0.77458431 13.56228025 -3 4 C-2.34 4 -1.68 4 -1 4 C-0.67 2.68 -0.34 1.36 0 0 Z " fill="#E7C436" transform="translate(244,194)"/>
<path d="M0 0 C1.04702186 3.7264085 1.07442057 7.13013042 1 11 C3.475 11.99 3.475 11.99 6 13 C5.34 14.32 4.68 15.64 4 17 C2.35 16.01 0.7 15.02 -1 14 C-1.33 19.61 -1.66 25.22 -2 31 C-2.33 31 -2.66 31 -3 31 C-3.38339966 20.19380948 -2.5423351 10.53253112 0 0 Z " fill="#EEC549" transform="translate(135,151)"/>
<path d="M0 0 C3 0 3 0 5 1 C6.9022844 5.43866361 7.19188324 9.20291909 7 14 C4 13 4 13 2.83203125 10.8203125 C2.49558594 9.93085938 2.15914062 9.04140625 1.8125 8.125 C1.29623047 6.79855469 1.29623047 6.79855469 0.76953125 5.4453125 C0 3 0 3 0 0 Z " fill="#E5BF32" transform="translate(152,174)"/>
<path d="M0 0 C0.07347656 0.58910156 0.14695313 1.17820313 0.22265625 1.78515625 C2.31736744 7.75350421 11.28134882 11.25424006 16.625 13.9375 C18.07936412 14.63335729 19.53622174 15.32417046 21 16 C18.3333581 17.33332095 16.83319697 16.67102033 14 16 C14 15.34 14 14.68 14 14 C13.030625 13.87625 12.06125 13.7525 11.0625 13.625 C10.051875 13.41875 9.04125 13.2125 8 13 C7.67 12.34 7.34 11.68 7 11 C5.35636866 10.27840576 3.68949614 9.60648579 2 9 C2 8.01 2 7.02 2 6 C1.01 5.67 0.02 5.34 -1 5 C-0.67 3.35 -0.34 1.7 0 0 Z " fill="#E1BC4E" transform="translate(184,219)"/>
<path d="M0 0 C0.804375 0.6496875 0.804375 0.6496875 1.625 1.3125 C9.58112231 6.96553428 16.63925376 6.79430607 26 6 C27.67367753 5.70387095 29.34504833 5.38732912 31 5 C30.67 5.99 30.34 6.98 30 8 C27.1253509 8.19586184 24.25061717 8.38193799 21.375 8.5625 C20.16263672 8.64661133 20.16263672 8.64661133 18.92578125 8.73242188 C7.67941859 9.4181757 7.67941859 9.4181757 3.1875 5.625 C1 3 1 3 0 0 Z " fill="#E5B64C" transform="translate(93,231)"/>
<path d="M0 0 C2 3 2 3 1.625 5.1875 C1.41875 5.785625 1.2125 6.38375 1 7 C0.01 7 -0.98 7 -2 7 C-2.33 7.99 -2.66 8.98 -3 10 C-3.66 10 -4.32 10 -5 10 C-4.97679687 10.61488281 -4.95359375 11.22976562 -4.9296875 11.86328125 C-4.91164062 12.67152344 -4.89359375 13.47976562 -4.875 14.3125 C-4.85179687 15.11300781 -4.82859375 15.91351563 -4.8046875 16.73828125 C-5 19 -5 19 -7 22 C-8.34419556 16.13441939 -7.76804735 12.34807638 -5 7 C-3.43888648 4.55410108 -1.77490505 2.30257953 0 0 Z " fill="#E2C144" transform="translate(59,126)"/>
<path d="M0 0 C0.33 0 0.66 0 1 0 C1.33 3.3 1.66 6.6 2 10 C8.6 10.33 15.2 10.66 22 11 C22 11.33 22 11.66 22 12 C14.64424835 12.70776992 7.3905476 13.14715692 0 13 C-1.36421031 10.27157939 -0.87807211 8.39046682 -0.5625 5.375 C-0.40974609 3.87066406 -0.40974609 3.87066406 -0.25390625 2.3359375 C-0.17011719 1.56507813 -0.08632812 0.79421875 0 0 Z " fill="#EEC14F" transform="translate(249,144)"/>
<path d="M0 0 C6.27 0 12.54 0 19 0 C19 1.32 19 2.64 19 4 C19.66 4 20.32 4 21 4 C20.67 5.32 20.34 6.64 20 8 C18.68 8.33 17.36 8.66 16 9 C16.875 3.25 16.875 3.25 18 1 C12.06 1 6.12 1 0 1 C0 0.67 0 0.34 0 0 Z " fill="#E9C14E" transform="translate(158,172)"/>
<path d="M0 0 C5.41342681 1.14514798 7.9342948 2.34012809 11 7 C10.01 7.99 9.02 8.98 8 10 C6.66370254 8.52351062 5.33103329 7.0437367 4 5.5625 C3.2575 4.73878906 2.515 3.91507813 1.75 3.06640625 C0 1 0 1 0 0 Z " fill="#E7C442" transform="translate(167,157)"/>
<path d="M0 0 C1.32 0 2.64 0 4 0 C4.12375 0.61875 4.2475 1.2375 4.375 1.875 C4.87197356 4.19120832 4.87197356 4.19120832 7 6 C5.68 7.32 4.36 8.64 3 10 C2.67 8.35 2.34 6.7 2 5 C0.35 5 -1.3 5 -3 5 C-3 4.34 -3 3.68 -3 3 C-2.01 2.34 -1.02 1.68 0 1 C0 0.67 0 0.34 0 0 Z " fill="#E7BA1C" transform="translate(150,166)"/>
<path d="M0 0 C2.475 0.99 2.475 0.99 5 2 C4.4375 3.9375 4.4375 3.9375 3 6 C-0.625 6.75 -0.625 6.75 -4 7 C-3.43628586 3.73045798 -2.50037734 2.17424117 0 0 Z " fill="#ECBE22" transform="translate(186,104)"/>
<path d="M0 0 C-2.44568622 2.92746298 -2.44568622 2.92746298 -4.90112305 3.2487793 C-5.59761963 3.19117432 -6.29411621 3.13356934 -7.01171875 3.07421875 C-7.76904297 3.01943359 -8.52636719 2.96464844 -9.30664062 2.90820312 C-10.09232422 2.83537109 -10.87800781 2.76253906 -11.6875 2.6875 C-12.48478516 2.62626953 -13.28207031 2.56503906 -14.10351562 2.50195312 C-16.07016953 2.34886031 -18.03528989 2.17629291 -20 2 C-20 1.67 -20 1.34 -20 1 C-13.34362157 -0.23839599 -6.7528064 -0.09139136 0 0 Z " fill="#E7C648" transform="translate(122,101)"/>
<path d="M0 0 C0 0.66 0 1.32 0 2 C1.65 2 3.3 2 5 2 C4.67 2.99 4.34 3.98 4 5 C2.20793453 4.85915204 0.41635083 4.71216299 -1.375 4.5625 C-2.37273437 4.48128906 -3.37046875 4.40007812 -4.3984375 4.31640625 C-7 4 -7 4 -9 3 C-9 2.34 -9 1.68 -9 1 C-2.25 0 -2.25 0 0 0 Z " fill="#E6BD31" transform="translate(147,169)"/>
<path d="M0 0 C0.66 1.32 1.32 2.64 2 4 C-6.20689655 11 -6.20689655 11 -11 11 C-11 10.34 -11 9.68 -11 9 C-10.01 9 -9.02 9 -8 9 C-8 8.34 -8 7.68 -8 7 C-6.35 6.67 -4.7 6.34 -3 6 C-2.87625 5.38125 -2.7525 4.7625 -2.625 4.125 C-2 2 -2 2 0 0 Z " fill="#E4BD38" transform="translate(263,228)"/>
<path d="M0 0 C4.12172083 3.76843047 7.63068221 7.88904305 10 13 C9.67 13.66 9.34 14.32 9 15 C7.125 14.4375 7.125 14.4375 5 13 C4.26924352 10.6859378 3.59861742 8.35171131 3 6 C2.34 5.67 1.68 5.34 1 5 C0.375 2.4375 0.375 2.4375 0 0 Z " fill="#E3C34C" transform="translate(183,127)"/>
<path d="M0 0 C0 0.66 0 1.32 0 2 C-0.66 2 -1.32 2 -2 2 C-2 3.65 -2 5.3 -2 7 C-2.66 7 -3.32 7 -4 7 C-4 6.34 -4 5.68 -4 5 C-4.66 5 -5.32 5 -6 5 C-6 5.66 -6 6.32 -6 7 C-7.65 6.67 -9.3 6.34 -11 6 C-8.24029211 2.78034079 -4.3526723 0 0 0 Z " fill="#E7BD3E" transform="translate(84,109)"/>
<path d="M0 0 C0.66 0.33 1.32 0.66 2 1 C1.85913398 3.60452271 1.71251536 6.20850197 1.5625 8.8125 C1.50352539 9.91948242 1.50352539 9.91948242 1.44335938 11.04882812 C1.25618965 14.23071342 1.01279207 16.96162378 0 20 C-0.99 20.33 -1.98 20.66 -3 21 C-2.7834375 20.07058594 -2.566875 19.14117187 -2.34375 18.18359375 C-2.0653125 16.94738281 -1.786875 15.71117187 -1.5 14.4375 C-1.2215625 13.21933594 -0.943125 12.00117188 -0.65625 10.74609375 C-0.01362446 7.07777293 0.11474823 3.71497397 0 0 Z " fill="#EEC948" transform="translate(244,207)"/>
<path d="M0 0 C4.70478962 3.42166518 8.27653164 7.57905197 12 12 C11.67 12.66 11.34 13.32 11 14 C5.125 9.25 5.125 9.25 4 7 C3.01 6.67 2.02 6.34 1 6 C0.67 4.02 0.34 2.04 0 0 Z " fill="#E4C14B" transform="translate(141,176)"/>
<path d="M0 0 C2.64 0 5.28 0 8 0 C6 3 6 3 3.3984375 3.73046875 C1.90183594 3.95669922 1.90183594 3.95669922 0.375 4.1875 C-0.62789063 4.34605469 -1.63078125 4.50460938 -2.6640625 4.66796875 C-3.82035156 4.83232422 -3.82035156 4.83232422 -5 5 C-4.34 4.67 -3.68 4.34 -3 4 C-3 3.34 -3 2.68 -3 2 C-2.01 2 -1.02 2 0 2 C0 1.34 0 0.68 0 0 Z " fill="#EAC335" transform="translate(113,181)"/>
<path d="M0 0 C0.66 1.32 1.32 2.64 2 4 C2.99 4 3.98 4 5 4 C5.6875 6.3125 5.6875 6.3125 6 9 C4.8125 10.875 4.8125 10.875 3 12 C0.8125 11.6875 0.8125 11.6875 -1 11 C-0.34 10.67 0.32 10.34 1 10 C0.67 6.7 0.34 3.4 0 0 Z " fill="#F3D044" transform="translate(147,157)"/>
<path d="M0 0 C-6.93 3.465 -6.93 3.465 -14 7 C-14 6.34 -14 5.68 -14 5 C-13.34 5 -12.68 5 -12 5 C-12 4.34 -12 3.68 -12 3 C-11.34 2.34 -10.68 1.68 -10 1 C-10 0.67 -10 0.34 -10 0 C-6.05523353 -0.80688405 -4.00001715 -1.00000429 0 0 Z " fill="#E2BD45" transform="translate(111,114)"/>
<path d="M0 0 C0.6875 1.75 0.6875 1.75 1 4 C-0.3125 6.25 -0.3125 6.25 -2 8 C-2.66 8 -3.32 8 -4 8 C-4 6.68 -4 5.36 -4 4 C-5.32 3.67 -6.64 3.34 -8 3 C-6.865625 2.690625 -5.73125 2.38125 -4.5625 2.0625 C-1.21224901 1.37075469 -1.21224901 1.37075469 0 0 Z " fill="#EFB824" transform="translate(181,168)"/>
<path d="M0 0 C0.66 0.66 1.32 1.32 2 2 C1.875 4 1.875 4 1 6 C-1.0625 7.25 -1.0625 7.25 -3 8 C-3 7.34 -3 6.68 -3 6 C-3.66 5.67 -4.32 5.34 -5 5 C-3.35 3.35 -1.7 1.7 0 0 Z " fill="#E7C037" transform="translate(190,176)"/>
<path d="M0 0 C1.32 0 2.64 0 4 0 C4.33 2.64 4.66 5.28 5 8 C3.02 8 1.04 8 -1 8 C-0.649375 7.05125 -0.29875 6.1025 0.0625 5.125 C1.35026777 2.12939828 1.35026777 2.12939828 0 0 Z " fill="#E5BE36" transform="translate(151,118)"/>
<path d="M0 0 C2.4375 0.9375 2.4375 0.9375 5 3 C5.7524935 5.98877701 5.92909865 8.92545953 6 12 C3.32098068 9.68118495 2.33795597 7.68185532 1.3125 4.3125 C1.06113281 3.50425781 0.80976563 2.69601563 0.55078125 1.86328125 C0.36902344 1.24839844 0.18726563 0.63351563 0 0 Z " fill="#EBC144" transform="translate(137,201)"/>
<path d="M0 0 C-3 2 -3 2 -6 2 C-6 2.99 -6 3.98 -6 5 C-7.9375 4.625 -7.9375 4.625 -10 4 C-10.33 3.34 -10.66 2.68 -11 2 C-3.57142857 -1.57142857 -3.57142857 -1.57142857 0 0 Z " fill="#EBC643" transform="translate(186,105)"/>
<path d="M0 0 C1.02196992 0.97753644 2.01979625 1.9805881 3 3 C3.99 3.66 4.98 4.32 6 5 C1.03083364 4.48594831 -3.29026351 3.76615118 -8 2 C-8 1.67 -8 1.34 -8 1 C-2.25 0 -2.25 0 0 0 Z " fill="#E9BC44" transform="translate(188,242)"/>
<path d="M0 0 C0.33 0 0.66 0 1 0 C1.4803318 1.58298026 1.95921612 3.16639978 2.4375 4.75 C2.83775391 6.07257813 2.83775391 6.07257813 3.24609375 7.421875 C3.88468494 9.60565835 4.46775833 11.78835498 5 14 C4.34 14 3.68 14 3 14 C-0.00559652 8.99067246 -0.29341888 5.67276511 0 0 Z " fill="#E0B84C" transform="translate(87,215)"/>
<path d="M0 0 C3 0 3 0 5 1 C4.625 3.9375 4.625 3.9375 4 7 C3.01 7.495 3.01 7.495 2 8 C0.74335022 5.09399739 0 3.20395416 0 0 Z " fill="#EDC442" transform="translate(152,174)"/>
<path d="M0 0 C4.71403788 0.47939368 8.66579301 0.96834048 13 3 C11.02 3.99 11.02 3.99 9 5 C9 4.34 9 3.68 9 3 C7.35 3.33 5.7 3.66 4 4 C3.67 3.01 3.34 2.02 3 1 C2.01 0.67 1.02 0.34 0 0 Z " fill="#E5B840" transform="translate(233,104)"/>
<path d="M0 0 C4.455 0.99 4.455 0.99 9 2 C9 2.66 9 3.32 9 4 C9.99 4.33 10.98 4.66 12 5 C3.64989059 4.64989059 3.64989059 4.64989059 0.9375 1.9375 C0.628125 1.298125 0.31875 0.65875 0 0 Z " fill="#EEC344" transform="translate(94,242)"/>
<path d="M0 0 C5.625 -0.25 5.625 -0.25 9 2 C9 2.66 9 3.32 9 4 C7.35 4 5.7 4 4 4 C4 3.34 4 2.68 4 2 C2.68 2 1.36 2 0 2 C0 1.34 0 0.68 0 0 Z " fill="#E8C120" transform="translate(165,230)"/>
<path d="M0 0 C0.99 0.66 1.98 1.32 3 2 C3 3.32 3 4.64 3 6 C-0.10551666 6 -1.35261084 5.4606285 -4 4 C-2.68 2.68 -1.36 1.36 0 0 Z " fill="#EAC23D" transform="translate(171,234)"/>
<path d="M0 0 C0 0.66 0 1.32 0 2 C-0.99 2 -1.98 2 -3 2 C-3 2.66 -3 3.32 -3 4 C-4.65 3.67 -6.3 3.34 -8 3 C-5.53387212 -0.1151089 -3.89156016 -0.31553191 0 0 Z " fill="#EBBE1E" transform="translate(113,181)"/>
<path d="M0 0 C2.31 0 4.62 0 7 0 C7 0.66 7 1.32 7 2 C7.99 2 8.98 2 10 2 C10 2.99 10 3.98 10 5 C5 3 5 3 0 1 C0 0.67 0 0.34 0 0 Z " fill="#E9C749" transform="translate(141,113)"/>
<path d="M0 0 C2.57945213 2.9954928 4.17360993 5.14351301 5 9 C5.66 9.33 6.32 9.66 7 10 C6.01 10 5.02 10 4 10 C1.09677182 6.35022743 0 4.74147821 0 0 Z " fill="#DDBD43" transform="translate(52,212)"/>
<path d="M0 0 C2.64 0 5.28 0 8 0 C7.67 0.99 7.34 1.98 7 3 C5.35 3.33 3.7 3.66 2 4 C1.34 2.68 0.68 1.36 0 0 Z " fill="#F4C53A" transform="translate(163,199)"/>
<path d="M0 0 C2 2 2 2 3 5 C2.0625 8.1875 2.0625 8.1875 1 11 C0.67 11 0.34 11 0 11 C-0.19406478 9.35492782 -0.38007935 7.70890406 -0.5625 6.0625 C-0.66691406 5.14597656 -0.77132812 4.22945312 -0.87890625 3.28515625 C-0.91886719 2.53105469 -0.95882812 1.77695313 -1 1 C-0.67 0.67 -0.34 0.34 0 0 Z " fill="#F1C53B" transform="translate(183,152)"/>
<path d="M0 0 C2 2 2 2 2.1953125 4.1640625 C2.16050781 5.38222656 2.16050781 5.38222656 2.125 6.625 C2.10695312 7.44226563 2.08890625 8.25953125 2.0703125 9.1015625 C2.04710937 9.72804687 2.02390625 10.35453125 2 11 C2.66 11 3.32 11 4 11 C4 11.99 4 12.98 4 14 C3.01 13.67 2.02 13.34 1 13 C0.67 8.71 0.34 4.42 0 0 Z " fill="#E2BB34" transform="translate(249,141)"/>
<path d="M0 0 C0.66 0.33 1.32 0.66 2 1 C-0.31 3.31 -2.62 5.62 -5 8 C-5.33 7.01 -5.66 6.02 -6 5 C-5.67 4.34 -5.34 3.68 -5 3 C-4.01 3 -3.02 3 -2 3 C-2 2.34 -2 1.68 -2 1 C-1.34 0.67 -0.68 0.34 0 0 Z " fill="#E0BE50" transform="translate(94,122)"/>
<path d="M0 0 C1.32 0 2.64 0 4 0 C4 0.99 4 1.98 4 3 C3.01 3.33 2.02 3.66 1 4 C0.67 5.98 0.34 7.96 0 10 C-0.33 10 -0.66 10 -1 10 C-1.125 3.375 -1.125 3.375 0 0 Z " fill="#E8BD1F" transform="translate(134,165)"/>
<path d="M0 0 C0.99 0 1.98 0 3 0 C2.6875 1.875 2.6875 1.875 2 4 C1.01 4.66 0.02 5.32 -1 6 C-1.625 4.125 -1.625 4.125 -2 2 C-1.34 1.34 -0.68 0.68 0 0 Z " fill="#D9BD45" transform="translate(155,162)"/>
<path d="M0 0 C1.98 0.66 3.96 1.32 6 2 C6 3.65 6 5.3 6 7 C1.125 2.25 1.125 2.25 0 0 Z " fill="#E5C146" transform="translate(238,123)"/>
<path d="M0 0 C0.66 0.33 1.32 0.66 2 1 C0.515 2.485 0.515 2.485 -1 4 C-0.67 4.66 -0.34 5.32 0 6 C-1.65 5.67 -3.3 5.34 -5 5 C-4.1875 3.0625 -4.1875 3.0625 -3 1 C-2.01 0.67 -1.02 0.34 0 0 Z " fill="#E5BD34" transform="translate(96,239)"/>
<path d="M0 0 C0.33 0 0.66 0 1 0 C1 1.65 1 3.3 1 5 C-1.31 5.33 -3.62 5.66 -6 6 C-4 4 -2 2 0 0 Z " fill="#E6B837" transform="translate(238,231)"/>
<path d="M0 0 C0 0.99 0 1.98 0 3 C-2.64 3.66 -5.28 4.32 -8 5 C-3.375 0 -3.375 0 0 0 Z " fill="#E8C547" transform="translate(147,225)"/>
<path d="M0 0 C1.32 0 2.64 0 4 0 C4 0.66 4 1.32 4 2 C4.66 2.33 5.32 2.66 6 3 C5.34 3 4.68 3 4 3 C3.67 3.99 3.34 4.98 3 6 C0 2.25 0 2.25 0 0 Z " fill="#E6B944" transform="translate(145,216)"/>
<path d="M0 0 C0.99 0.99 1.98 1.98 3 3 C2.01 3.99 1.02 4.98 0 6 C-1.32 4.35 -2.64 2.7 -4 1 C-2.68 1.33 -1.36 1.66 0 2 C0 1.34 0 0.68 0 0 Z " fill="#EEDB59" transform="translate(175,161)"/>
<path d="M0 0 C1.65 0 3.3 0 5 0 C4.67 1.98 4.34 3.96 4 6 C3.01 5.67 2.02 5.34 1 5 C0.67 3.35 0.34 1.7 0 0 Z " fill="#F0C43E" transform="translate(247,137)"/>
<path d="M0 0 C0.66 0 1.32 0 2 0 C2 0.99 2 1.98 2 3 C3.65 3 5.3 3 7 3 C3.77208445 5.1519437 2.71599191 5.20086443 -1 5 C-0.67 3.35 -0.34 1.7 0 0 Z " fill="#E7C244" transform="translate(112,108)"/>
<path d="M0 0 C1.32 0 2.64 0 4 0 C4 0.66 4 1.32 4 2 C4.99 2 5.98 2 7 2 C7.33 3.32 7.66 4.64 8 6 C4.63408134 4.55746343 2.48952921 2.66735273 0 0 Z " fill="#DBBC42" transform="translate(60,226)"/>
<path d="M0 0 C2 1.375 2 1.375 4 3 C4 3.66 4 4.32 4 5 C3.01 5.33 2.02 5.66 1 6 C-0.0625 4.125 -0.0625 4.125 -1 2 C-0.67 1.34 -0.34 0.68 0 0 Z " fill="#E6C244" transform="translate(179,122)"/>
<path d="" fill="#FFFFFF" transform="translate(0,0)"/>
<path d="" fill="#FFFFFF" transform="translate(0,0)"/>
<path d="" fill="#FFFFFF" transform="translate(0,0)"/>
<path d="" fill="#FFFFFF" transform="translate(0,0)"/>
<path d="" fill="#FFFFFF" transform="translate(0,0)"/>
<path d="" fill="#FFFFFF" transform="translate(0,0)"/>
<path d="" fill="#FFFFFF" transform="translate(0,0)"/>
<path d="" fill="#FFFFFF" transform="translate(0,0)"/>
<path d="" fill="#FFFFFF" transform="translate(0,0)"/>
<path d="" fill="#FFFFFF" transform="translate(0,0)"/>
<path d="" fill="#FFFFFF" transform="translate(0,0)"/>
<path d="" fill="#FFFFFF" transform="translate(0,0)"/>
<path d="" fill="#FFFFFF" transform="translate(0,0)"/>
<path d="" fill="#FFFFFF" transform="translate(0,0)"/>
<path d="" fill="#FFFFFF" transform="translate(0,0)"/>
<path d="" fill="#FFFFFF" transform="translate(0,0)"/>
<path d="" fill="#FFFFFF" transform="translate(0,0)"/>
<path d="" fill="#FFFFFF" transform="translate(0,0)"/>
<path d="" fill="#FFFFFF" transform="translate(0,0)"/>
<path d="" fill="#FFFFFF" transform="translate(0,0)"/>
<path d="" fill="#FFFFFF" transform="translate(0,0)"/>
<path d="" fill="#FFFFFF" transform="translate(0,0)"/>
<path d="" fill="#FFFFFF" transform="translate(0,0)"/>
<path d="" fill="#FFFFFF" transform="translate(0,0)"/>
<path d="" fill="#FFFFFF" transform="translate(0,0)"/>
<path d="" fill="#FFFFFF" transform="translate(0,0)"/>
<path d="" fill="#FFFFFF" transform="translate(0,0)"/>
<path d="" fill="#FFFFFF" transform="translate(0,0)"/>
<path d="" fill="#FFFFFF" transform="translate(0,0)"/>
<path d="" fill="#FFFFFF" transform="translate(0,0)"/>
<path d="" fill="#FFFFFF" transform="translate(0,0)"/>
<path d="" fill="#FFFFFF" transform="translate(0,0)"/>
<path d="" fill="#FFFFFF" transform="translate(0,0)"/>
<path d="" fill="#FFFFFF" transform="translate(0,0)"/>
<path d="" fill="#FFFFFF" transform="translate(0,0)"/>
<path d="" fill="#FFFFFF" transform="translate(0,0)"/>
<path d="" fill="#FFFFFF" transform="translate(0,0)"/>
<path d="" fill="#FFFFFF" transform="translate(0,0)"/>
<path d="" fill="#FFFFFF" transform="translate(0,0)"/>
<path d="" fill="#FFFFFF" transform="translate(0,0)"/>
<path d="" fill="#FFFFFF" transform="translate(0,0)"/>
<path d="" fill="#FFFFFF" transform="translate(0,0)"/>
<path d="" fill="#FFFFFF" transform="translate(0,0)"/>
<path d="" fill="#FFFFFF" transform="translate(0,0)"/>
<path d="" fill="#FFFFFF" transform="translate(0,0)"/>
<path d="" fill="#FFFFFF" transform="translate(0,0)"/>
<path d="" fill="#FFFFFF" transform="translate(0,0)"/>
<path d="" fill="#FFFFFF" transform="translate(0,0)"/>
<path d="" fill="#FFFFFF" transform="translate(0,0)"/>
<path d="" fill="#FFFFFF" transform="translate(0,0)"/>
<path d="" fill="#FFFFFF" transform="translate(0,0)"/>
<path d="" fill="#FFFFFF" transform="translate(0,0)"/>
<path d="" fill="#FFFFFF" transform="translate(0,0)"/>
<path d="" fill="#FFFFFF" transform="translate(0,0)"/>
<path d="" fill="#FFFFFF" transform="translate(0,0)"/>
<path d="" fill="#FFFFFF" transform="translate(0,0)"/>
<path d="" fill="#FFFFFF" transform="translate(0,0)"/>
</svg>
